#!OML:ASF X:\für Bonn\!DataBase\2005_08_10_Bjorn_Final\c3d\bjorn.ASF
:FULLY-SPECIFIED
:DEGREES
566
root -0.401226 1.58109 10.5687 -2437.02 -0.968056 191.543
lowerback 6.32572 -0.988296 -2.68061
upperback 4.66239 -1.67056 -2.89141
thorax 1.24887 -0.971512 -1.39028
lowerneck -18.5646 -4.58505 -0.196922
upperneck 11.8883 -7.08414 4.56397
head 6.8416 -3.11652 0.704763
rclavicle 9.54166e-015 7.65321e-015
rhumerus -434.739 52.489 247.357
rradius 111.087
rwrist -29.3338
rhand -5.79328 9.13925
rfingers 7.12502
rthumb 20.0311 -19.8482
lclavicle 9.54166e-015 7.65321e-015
lhumerus -77.8739 -67.8554 119.74
lradius 110.835
lwrist 38.5207
lhand -4.75904 -12.1674
lfingers 7.12502
lthumb 21.0249 736.713
rfemur -215 -151.812 171.191
rtibia 106.75
rfoot 41.4861 12.5632
rtoes 9.18635
lfemur 187.42 183.897 160.651
ltibia 6.96658
lfoot 26.0586 -13.3869
ltoes -9.18137
567
root -0.400345 1.57972 10.5717 -2437.09 -0.873369 191.342
lowerback 6.3863 -0.928736 -2.5755
upperback 4.68196 -1.59247 -2.86555
thorax 1.23354 -0.932161 -1.42532
lowerneck -18.5078 -4.5666 -0.204007
upperneck 11.7999 -7.04611 4.54291
head 6.80181 -3.10243 0.705895
rclavicle -2.54444e-014 -1.64991e-014
rhumerus -434.733 52.5038 247.265
rradius 111.019
rwrist -29.5023
rhand -5.3985 9.12553
rfingers 7.12502
rthumb 20.4105 -19.8218
lclavicle -2.54444e-014 -1.64991e-014
lhumerus -77.7064 -67.8726 119.6
lradius 110.818
lwrist 38.4164
lhand -4.66815 -12.2574
lfingers 7.12502
lthumb 21.1122 736.613
rfemur -215.135 -152.305 171.57
rtibia 106.744
rfoot 41.2825 12.4012
rtoes 8.85514
lfemur 187.537 183.761 160.758
ltibia 6.93102
lfoot 25.7751 -13.7846
ltoes -11.4386
568
root -0.399731 1.57819 10.5748 -2437.16 -0.768154 191.139
lowerback 6.44841 -0.865004 -2.44014
upperback 4.72229 -1.50848 -2.85663
thorax 1.23791 -0.890054 -1.4956
lowerneck -18.5022 -4.56818 -0.25053
upperneck 11.7293 -7.04298 4.60054
head 6.78188 -3.10002 0.732986
rclavicle 1.74931e-014 1.11319e-014
rhumerus -434.692 52.5013 247.196
rradius 110.986
rwrist -29.6496
rhand -5.04026 9.06745
rfingers 7.12502
rthumb 20.7547 -19.8426
lclavicle 1.74931e-014 1.11319e-014
lhumerus -77.5697 -67.9432 119.466
lradius 110.819
lwrist 38.3596
lhand -4.57817 -12.3414
lfingers 7.12502
lthumb 21.1987 736.52
rfemur -215.247 -152.807 171.952
rtibia 106.741
rfoot 41.0489 12.2862
rtoes 8.34316
lfemur 187.641 183.623 160.872
ltibia 6.90132
lfoot 25.46 -14.186
ltoes -13.6175
569
root -0.398637 1.57735 10.5783 -2437.23 -0.662369 190.928
lowerback 6.51351 -0.80433 -2.33177
upperback 4.74248 -1.42866 -2.82216
thorax 1.22142 -0.849848 -1.52388
lowerneck -18.4414 -4.55997 -0.287229
upperneck 11.6419 -7.01495 4.59922
head 6.74383 -3.0905 0.743983
rclavicle 3.18055e-015 -1.2921e-014
rhumerus -434.7 52.5187 247.119
rradius 110.958
rwrist -29.7946
rhand -4.7094 9.03065
rfingers 7.12502
rthumb 21.0726 -19.8444
lclavicle 3.18055e-015 -1.2921e-014
lhumerus -77.4507 -67.9504 119.373
lradius 110.82
lwrist 38.2871
lhand -4.51874 -12.4255
lfingers 7.12502
lthumb 21.2557 736.429
rfemur -215.374 -153.325 172.346
rtibia 106.737
rfoot 40.8195 12.1114
rtoes 7.82279
lfemur 187.752 183.478 160.991
ltibia 6.81225
lfoot 25.2137 -14.5485
ltoes -15.4766
570
root -0.397918 1.57609 10.5814 -2437.32 -0.570877 190.717
lowerback 6.59727 -0.734894 -2.21788
upperback 4.7672 -1.33878 -2.80954
thorax 1.19902 -0.804846 -1.57823
lowerneck -18.3915 -4.55256 -0.319524
upperneck 11.5639 -6.99705 4.63033
head 6.71218 -3.08315 0.76305
rclavicle -2.70347e-014 2.60408e-014
rhumerus -434.675 52.4955 247.043
rradius 110.925
rwrist -29.9131
rhand -4.3643 8.97196
rfingers 7.12502
rthumb 21.4041 -19.8657
lclavicle -2.70347e-014 2.60408e-014
lhumerus -77.3944 -67.9856 119.329
lradius 110.802
lwrist 38.2463
lhand -4.4107 -12.5391
lfingers 7.12502
lthumb 21.3595 736.304
rfemur -215.47 -153.868 172.714
rtibia 106.731
rfoot 40.5745 11.8862
rtoes 7.45751
lfemur 187.916 183.333 161.097
ltibia 6.66177
lfoot 25.0921 -14.678
ltoes -16.3408
571
root -0.39716 1.57483 10.5853 -2437.39 -0.463576 190.481
lowerback 6.66095 -0.665576 -2.10514
upperback 4.80243 -1.24771 -2.77238
thorax 1.19952 -0.759707 -1.60745
lowerneck -18.3722 -4.54996 -0.38905
upperneck 11.4884 -6.97363 4.65376
head 6.68714 -3.07412 0.785578
rclavicle 1.59028e-014 -7.22582e-014
rhumerus -434.645 52.5185 247.023
rradius 110.934
rwrist -30.0364
rhand -4.03608 8.88363
rfingers 7.12502
rthumb 21.7193 -19.9179
lclavicle 1.59028e-014 -7.22582e-014
lhumerus -77.2644 -67.9951 119.239
lradius 110.8
lwrist 38.1497
lhand -4.37247 -12.5687
lfingers 7.12502
lthumb 21.3962 736.27
rfemur -215.596 -154.427 173.12
rtibia 106.732
rfoot 40.329 11.7158
rtoes 6.8974
lfemur 188.13 183.166 161.23
ltibia 6.41862
lfoot 25.0555 -14.5901
ltoes -16.4357
572
root -0.395756 1.57393 10.5885 -2437.47 -0.370849 190.25
lowerback 6.74951 -0.597137 -2.01093
upperback 4.81611 -1.1593 -2.74086
thorax 1.16443 -0.715568 -1.63131
lowerneck -18.2938 -4.54533 -0.446072
upperneck 11.3964 -6.95027 4.67894
head 6.64669 -3.06609 0.808031
rclavicle -1.74931e-014 6.95746e-015
rhumerus -434.671 52.5205 246.957
rradius 110.926
rwrist -30.1342
rhand -3.72749 8.83328
rfingers 7.12502
rthumb 22.0156 -19.9337
lclavicle -1.74931e-014 6.95746e-015
lhumerus -77.2448 -67.9831 119.236
lradius 110.795
lwrist 38.1026
lhand -4.30996 -12.5934
lfingers 7.12502
lthumb 21.4563 736.238
rfemur -215.71 -155.003 173.509
rtibia 106.738
rfoot 40.0422 11.5574
rtoes 6.2191
lfemur 188.435 183 161.341
ltibia 6.03538
lfoot 25.0475 -14.3879
ltoes -16.359
573
root -0.394212 1.5735 10.5918 -2437.56 -0.278018 189.987
lowerback 6.81549 -0.508547 -1.88806
upperback 4.86002 -1.04377 -2.73667
thorax 1.17282 -0.658555 -1.70208
lowerneck -18.281 -4.53906 -0.460015
upperneck 11.3219 -6.93718 4.69753
head 6.62133 -3.06067 0.818778
rclavicle 7.95139e-015 -7.65321e-015
rhumerus -434.602 52.4788 246.921
rradius 110.925
rwrist -30.1991
rhand -3.45632 8.76124
rfingers 7.12502
rthumb 22.276 -19.9749
lclavicle 7.95139e-015 -7.65321e-015
lhumerus -77.1582 -68.0563 119.15
lradius 110.784
lwrist 38.0622
lhand -4.23092 -12.6497
lfingers 7.12502
lthumb 21.5322 736.173
rfemur -215.819 -155.624 173.91
rtibia 106.742
rfoot 39.7496 11.3652
rtoes 5.63527
lfemur 188.842 182.805 161.456
ltibia 5.51599
lfoot 25.044 -14.1546
ltoes -16.2362
574
root -0.392824 1.57248 10.5946 -2437.67 -0.168065 189.743
lowerback 6.91505 -0.436827 -1.77607
upperback 4.88551 -0.950726 -2.6985
thorax 1.14436 -0.612317 -1.72979
lowerneck -18.2259 -4.5389 -0.535488
upperneck 11.2517 -6.91921 4.73698
head 6.59314 -3.05394 0.847314
rclavicle -1.59028e-014 2.70347e-014
rhumerus -434.599 52.487 246.895
rradius 110.93
rwrist -30.2784
rhand -3.15039 8.73174
rfingers 7.12502
rthumb 22.5696 -19.969
lclavicle -1.59028e-014 2.70347e-014
lhumerus -77.1399 -68.0528 119.155
lradius 110.76
lwrist 37.9746
lhand -4.20529 -12.6826
lfingers 7.12502
lthumb 21.5568 736.138
rfemur -215.916 -156.236 174.318
rtibia 106.754
rfoot 39.4537 11.1919
rtoes 4.95654
lfemur 189.331 182.63 161.583
ltibia 4.88674
lfoot 25.0525 -13.8569
ltoes -16.087
575
root -0.390376 1.57197 10.5971 -2437.76 -0.07059 189.484
lowerback 6.99795 -0.356439 -1.68038
upperback 4.92603 -0.847098 -2.66459
thorax 1.14133 -0.561844 -1.75407
lowerneck -18.2263 -4.53411 -0.590129
upperneck 11.19 -6.8961 4.75055
head 6.57493 -3.04455 0.863669
rclavicle 2.38542e-014 2.13694e-014
rhumerus -434.561 52.4772 246.888
rradius 110.941
rwrist -30.2931
rhand -2.88539 8.66945
rfingers 7.12502
rthumb 22.824 -20.0001
lclavicle 2.38542e-014 2.13694e-014
lhumerus -77.0728 -68.0622 119.115
lradius 110.75
lwrist 37.9029
lhand -4.15357 -12.7009
lfingers 7.12502
lthumb 21.6065 736.114
rfemur -216.018 -156.868 174.736
rtibia 106.759
rfoot 39.1211 11.0394
rtoes 4.16107
lfemur 189.892 182.44 161.707
ltibia 4.11655
lfoot 25.1099 -13.4351
ltoes -15.8573
